<mxfile host="Electron" agent="Mozilla/5.0 (X11; Linux x86_64) AppleWebKit/537.36 (KHTML, like Gecko) draw.io/24.7.17 Chrome/128.0.6613.36 Electron/32.0.1 Safari/537.36" version="24.7.17">
  <diagram name="Page-1" id="5RK5hDnc22A2SVm7BZdK">
    <mxGraphModel dx="2284" dy="870" grid="1" gridSize="10" guides="1" tooltips="1" connect="1" arrows="1" fold="1" page="1" pageScale="1" pageWidth="850" pageHeight="1100" math="0" shadow="0">
      <root>
        <mxCell id="0" />
        <mxCell id="1" parent="0" />
        <mxCell id="ZVTUdkip_CEGoBLxOHIl-10" style="edgeStyle=orthogonalEdgeStyle;rounded=0;orthogonalLoop=1;jettySize=auto;html=1;exitX=0.5;exitY=1;exitDx=0;exitDy=0;entryX=0;entryY=0.5;entryDx=0;entryDy=0;" edge="1" parent="1" source="ZVTUdkip_CEGoBLxOHIl-1" target="ZVTUdkip_CEGoBLxOHIl-9">
          <mxGeometry relative="1" as="geometry" />
        </mxCell>
        <mxCell id="ZVTUdkip_CEGoBLxOHIl-11" style="edgeStyle=orthogonalEdgeStyle;rounded=0;orthogonalLoop=1;jettySize=auto;html=1;exitX=0.5;exitY=0;exitDx=0;exitDy=0;entryX=0;entryY=0.5;entryDx=0;entryDy=0;" edge="1" parent="1" source="ZVTUdkip_CEGoBLxOHIl-1" target="ZVTUdkip_CEGoBLxOHIl-8">
          <mxGeometry relative="1" as="geometry" />
        </mxCell>
        <mxCell id="ZVTUdkip_CEGoBLxOHIl-1" value="ffmpeg" style="rounded=0;whiteSpace=wrap;html=1;" vertex="1" parent="1">
          <mxGeometry x="140" y="390" width="100" height="40" as="geometry" />
        </mxCell>
        <mxCell id="ZVTUdkip_CEGoBLxOHIl-7" style="edgeStyle=orthogonalEdgeStyle;rounded=0;orthogonalLoop=1;jettySize=auto;html=1;exitX=1;exitY=0.5;exitDx=0;exitDy=0;entryX=0;entryY=0.5;entryDx=0;entryDy=0;" edge="1" parent="1" source="ZVTUdkip_CEGoBLxOHIl-3" target="ZVTUdkip_CEGoBLxOHIl-1">
          <mxGeometry relative="1" as="geometry" />
        </mxCell>
        <mxCell id="ZVTUdkip_CEGoBLxOHIl-3" value="" style="rounded=1;whiteSpace=wrap;html=1;strokeWidth=1;" vertex="1" parent="1">
          <mxGeometry x="-100" y="380" width="180" height="60" as="geometry" />
        </mxCell>
        <mxCell id="ZVTUdkip_CEGoBLxOHIl-5" value="" style="ellipse;whiteSpace=wrap;html=1;aspect=fixed;" vertex="1" parent="1">
          <mxGeometry x="-90" y="390" width="40" height="40" as="geometry" />
        </mxCell>
        <mxCell id="ZVTUdkip_CEGoBLxOHIl-6" value="" style="ellipse;whiteSpace=wrap;html=1;aspect=fixed;" vertex="1" parent="1">
          <mxGeometry x="30" y="390" width="40" height="40" as="geometry" />
        </mxCell>
        <mxCell id="ZVTUdkip_CEGoBLxOHIl-16" style="edgeStyle=orthogonalEdgeStyle;rounded=0;orthogonalLoop=1;jettySize=auto;html=1;exitX=1;exitY=0.5;exitDx=0;exitDy=0;entryX=0;entryY=0.5;entryDx=0;entryDy=0;" edge="1" parent="1" source="ZVTUdkip_CEGoBLxOHIl-8" target="ZVTUdkip_CEGoBLxOHIl-15">
          <mxGeometry relative="1" as="geometry" />
        </mxCell>
        <mxCell id="ZVTUdkip_CEGoBLxOHIl-8" value="udp pipe" style="rounded=0;whiteSpace=wrap;html=1;" vertex="1" parent="1">
          <mxGeometry x="270" y="340" width="100" height="40" as="geometry" />
        </mxCell>
        <mxCell id="ZVTUdkip_CEGoBLxOHIl-13" style="edgeStyle=orthogonalEdgeStyle;rounded=0;orthogonalLoop=1;jettySize=auto;html=1;exitX=1;exitY=0.5;exitDx=0;exitDy=0;entryX=0;entryY=0.5;entryDx=0;entryDy=0;" edge="1" parent="1" source="ZVTUdkip_CEGoBLxOHIl-9" target="ZVTUdkip_CEGoBLxOHIl-12">
          <mxGeometry relative="1" as="geometry" />
        </mxCell>
        <mxCell id="ZVTUdkip_CEGoBLxOHIl-9" value="disk pipe" style="rounded=0;whiteSpace=wrap;html=1;" vertex="1" parent="1">
          <mxGeometry x="270" y="440" width="100" height="40" as="geometry" />
        </mxCell>
        <mxCell id="ZVTUdkip_CEGoBLxOHIl-12" value="file_1.mp4&lt;br&gt;file_2.mp4&lt;br&gt;..." style="rounded=0;whiteSpace=wrap;html=1;fillColor=#fff2cc;strokeColor=#d6b656;" vertex="1" parent="1">
          <mxGeometry x="410" y="460" width="120" height="60" as="geometry" />
        </mxCell>
        <mxCell id="ZVTUdkip_CEGoBLxOHIl-14" value="May need to add a video filter to crop image in half" style="rounded=0;whiteSpace=wrap;html=1;fillColor=#fff2cc;strokeColor=#d6b656;" vertex="1" parent="1">
          <mxGeometry x="260" y="270" width="120" height="60" as="geometry" />
        </mxCell>
        <mxCell id="ZVTUdkip_CEGoBLxOHIl-15" value="UDP to WebSocket Relay Server" style="rounded=0;whiteSpace=wrap;html=1;" vertex="1" parent="1">
          <mxGeometry x="500" y="320" width="150" height="80" as="geometry" />
        </mxCell>
        <mxCell id="ZVTUdkip_CEGoBLxOHIl-20" style="edgeStyle=orthogonalEdgeStyle;rounded=0;orthogonalLoop=1;jettySize=auto;html=1;exitX=0;exitY=0.5;exitDx=0;exitDy=0;" edge="1" parent="1">
          <mxGeometry relative="1" as="geometry">
            <mxPoint x="189.99999999999977" y="350" as="targetPoint" />
            <mxPoint x="500" y="170" as="sourcePoint" />
          </mxGeometry>
        </mxCell>
        <mxCell id="ZVTUdkip_CEGoBLxOHIl-21" value="start / stop / configure" style="edgeLabel;html=1;align=center;verticalAlign=middle;resizable=0;points=[];" vertex="1" connectable="0" parent="ZVTUdkip_CEGoBLxOHIl-20">
          <mxGeometry x="-0.1762" y="1" relative="1" as="geometry">
            <mxPoint y="-1" as="offset" />
          </mxGeometry>
        </mxCell>
        <mxCell id="ZVTUdkip_CEGoBLxOHIl-17" value="API Server" style="rounded=0;whiteSpace=wrap;html=1;" vertex="1" parent="1">
          <mxGeometry x="500" y="130" width="150" height="80" as="geometry" />
        </mxCell>
        <mxCell id="ZVTUdkip_CEGoBLxOHIl-23" style="edgeStyle=orthogonalEdgeStyle;rounded=0;orthogonalLoop=1;jettySize=auto;html=1;exitX=0;exitY=0.5;exitDx=0;exitDy=0;" edge="1" parent="1" source="ZVTUdkip_CEGoBLxOHIl-22" target="ZVTUdkip_CEGoBLxOHIl-17">
          <mxGeometry relative="1" as="geometry" />
        </mxCell>
        <mxCell id="ZVTUdkip_CEGoBLxOHIl-26" value="start / stop / configure" style="edgeLabel;html=1;align=center;verticalAlign=middle;resizable=0;points=[];" vertex="1" connectable="0" parent="ZVTUdkip_CEGoBLxOHIl-23">
          <mxGeometry x="0.0586" y="1" relative="1" as="geometry">
            <mxPoint x="-4" y="-1" as="offset" />
          </mxGeometry>
        </mxCell>
        <mxCell id="ZVTUdkip_CEGoBLxOHIl-24" style="edgeStyle=orthogonalEdgeStyle;rounded=0;orthogonalLoop=1;jettySize=auto;html=1;exitX=0;exitY=0.5;exitDx=0;exitDy=0;entryX=1;entryY=0.5;entryDx=0;entryDy=0;curved=1;" edge="1" parent="1" source="ZVTUdkip_CEGoBLxOHIl-22" target="ZVTUdkip_CEGoBLxOHIl-15">
          <mxGeometry relative="1" as="geometry" />
        </mxCell>
        <mxCell id="ZVTUdkip_CEGoBLxOHIl-25" value="websocket&lt;br&gt;video packets" style="edgeLabel;html=1;align=center;verticalAlign=middle;resizable=0;points=[];" vertex="1" connectable="0" parent="ZVTUdkip_CEGoBLxOHIl-24">
          <mxGeometry x="0.1236" relative="1" as="geometry">
            <mxPoint y="-23" as="offset" />
          </mxGeometry>
        </mxCell>
        <mxCell id="ZVTUdkip_CEGoBLxOHIl-22" value="Web Application" style="rounded=0;whiteSpace=wrap;html=1;" vertex="1" parent="1">
          <mxGeometry x="850" y="130" width="150" height="80" as="geometry" />
        </mxCell>
        <mxCell id="ZVTUdkip_CEGoBLxOHIl-28" value="manage ffmpeg pipeline and configure with different settings" style="rounded=0;whiteSpace=wrap;html=1;fillColor=#fff2cc;strokeColor=#d6b656;" vertex="1" parent="1">
          <mxGeometry x="515" y="60" width="120" height="60" as="geometry" />
        </mxCell>
        <mxCell id="ZVTUdkip_CEGoBLxOHIl-29" value="acts as websocket server to relay udp packets" style="rounded=0;whiteSpace=wrap;html=1;fillColor=#fff2cc;strokeColor=#d6b656;" vertex="1" parent="1">
          <mxGeometry x="515" y="250" width="120" height="60" as="geometry" />
        </mxCell>
      </root>
    </mxGraphModel>
  </diagram>
</mxfile>
